<svg xmlns="http://www.w3.org/2000/svg" version="1.1" xmlns:xlink="http://www.w3.org/1999/xlink" xmlns:svgjs="http://svgjs.dev/svgjs" width="100" height="100"><svg width="100" height="100" viewBox="0 0 100 100" fill="none" xmlns="http://www.w3.org/2000/svg">
<path fill-rule="evenodd" clip-rule="evenodd" d="M8.31641 33.2614C8.31641 19.4841 19.4851 8.31543 33.2624 8.31543H66.5236C80.3009 8.31543 91.4696 19.4841 91.4696 33.2614V66.5227C91.4696 80.2999 80.3009 91.4686 66.5236 91.4686H33.2623C19.4851 91.4686 8.31641 80.2999 8.31641 66.5226V33.2614ZM17.1557 29.1037H36.5905L29.8551 16.9801C23.6567 18.2706 18.7236 23.0117 17.1557 29.1037ZM57.3788 29.1037H46.1029L39.1734 16.6307H50.4494L57.3788 29.1037ZM66.8912 29.1037H82.6303C80.7841 21.9308 74.2728 16.6307 66.5236 16.6307H59.9617L66.8912 29.1037ZM83.1542 37.419H16.6317V66.5226C16.6317 75.7075 24.0775 83.1533 33.2623 83.1533H66.5236C75.7085 83.1533 83.1542 75.7075 83.1542 66.5227V37.419ZM60.6483 58.5992C61.4558 58.1148 61.4558 56.9446 60.6483 56.4601L43.5317 46.1901C42.7003 45.6913 41.6426 46.2901 41.6426 47.2597V67.7997C41.6426 68.7692 42.7003 69.368 43.5317 68.8692L60.6483 58.5992Z" fill="#3B3B3B"></path>
</svg><style>@media (prefers-color-scheme: light) { :root { filter: none; } }
@media (prefers-color-scheme: dark) { :root { filter: invert(100%); } }
</style></svg>